<svg width="31" height="26" viewBox="0 0 31 26" fill="none" xmlns="http://www.w3.org/2000/svg">
<path d="M15.1133 1.04121C14.8168 1.1959 1.24297 12.0111 0.888477 12.3721C0.643555 12.6234 0.611328 12.6879 0.611328 12.9521C0.611328 13.5645 1.2752 13.9447 1.83594 13.6482C1.9584 13.5838 5.07148 11.1281 8.74531 8.19551C12.4191 5.26289 15.442 2.86523 15.4678 2.86523C15.4871 2.86523 18.3553 5.13398 21.8357 7.91191C25.3162 10.6898 28.3906 13.1391 28.6678 13.3582C29.1383 13.732 29.1963 13.7578 29.4992 13.7578C29.7893 13.7578 29.8473 13.732 30.0406 13.5258C30.2275 13.3324 30.2598 13.2486 30.2598 12.9908C30.2598 12.7717 30.2146 12.6234 30.118 12.4816C30.0084 12.3334 17.382 2.20781 16.0156 1.17656C15.7063 0.94453 15.3969 0.892968 15.1133 1.04121Z" fill="#A6A6A6"/>
<path d="M5.78691 12.9522C5.6709 13.0037 5.51621 13.1391 5.44531 13.2551C5.31641 13.4613 5.31641 13.5645 5.31641 19.2943V25.1145L5.56133 25.3594C5.76113 25.5656 5.86426 25.6108 6.1543 25.6494C6.34766 25.6688 7.77207 25.6817 9.3125 25.6688C12.4256 25.6494 12.4062 25.6494 12.6447 25.2111C12.7479 25.0242 12.7607 24.7342 12.7801 22.0078C12.7865 20.0033 12.8187 18.9334 12.8639 18.7852C13.1926 17.7861 13.9789 17.0901 15.0102 16.9096C16.1445 16.7162 17.3176 17.3285 17.8396 18.3984L18.0459 18.8174L18.0781 21.9434C18.1168 25.4174 18.0975 25.2885 18.5486 25.5334C18.7355 25.643 19.0127 25.6494 21.8486 25.6494C24.6846 25.6494 24.9617 25.643 25.1486 25.5334C25.6191 25.282 25.5869 25.7332 25.5869 19.2621C25.5869 13.4807 25.5869 13.442 25.4516 13.2615C25.1615 12.8684 24.6781 12.7717 24.2785 13.0359C23.9369 13.2615 23.9434 13.152 23.9434 18.7852V24.0059H21.8551H19.7604L19.741 21.3762C19.7152 18.8432 19.7152 18.7401 19.567 18.3018C19.3285 17.5734 19.0062 17.0578 18.4391 16.4906C17.5625 15.6205 16.6537 15.2402 15.4355 15.2402C14.6557 15.2402 14.1723 15.3498 13.5148 15.6785C12.6447 16.1168 12.0131 16.7549 11.5619 17.6572C11.1494 18.4951 11.1172 18.7401 11.1172 21.5438V24.0059L9.0418 23.993L6.95996 23.9736L6.92773 18.6498C6.89551 13.4356 6.89551 13.3195 6.7666 13.1777C6.6248 13.0166 6.28965 12.8555 6.10918 12.8555C6.04473 12.8619 5.89648 12.9006 5.78691 12.9522Z" fill="#A6A6A6"/>
</svg>
