<svg width="25" height="25" viewBox="0 0 25 25" fill="none" xmlns="http://www.w3.org/2000/svg">
<g clip-path="url(#clip0_43_246)">
<path d="M23.1344 13.9833C21.6699 12.7609 19.4846 12.2391 16.6476 12.4255C18.4955 11.1956 19.7147 9.13834 19.7147 6.79785C19.7147 3.05605 16.5709 0 12.7141 0C8.8572 0 5.71345 3.05605 5.71345 6.80531C5.71345 9.02654 6.80993 10.9943 8.50449 12.2391C6.45721 12.0453 2.1403 12.1869 0.829125 16.6145C0.81379 16.6592 0.806122 16.7114 0.806122 16.7561V24.4857C0.806122 24.7689 1.04382 25 1.33519 25H24.3383C24.6297 25 24.8673 24.7689 24.8673 24.4857V17.1213C24.8673 17.1213 24.8673 17.099 24.8673 17.0915C24.8673 17.017 24.7447 15.325 23.1344 13.9833ZM6.71025 6.80531C6.71025 3.58527 9.40161 0.968992 12.7141 0.968992C16.0265 0.968992 18.7179 3.58527 18.7179 6.80531C18.7179 10.0253 16.0418 12.6193 12.7447 12.6342H12.6834C9.38627 12.6193 6.71025 10.0104 6.71025 6.80531ZM12.6067 14.7138H13.1204L13.8795 16.2343L12.8444 18.1947L12.07 16.7114L12.6067 14.7063V14.7138ZM11.978 13.6777C11.978 13.4839 12.139 13.3274 12.3383 13.3274H13.3505C13.5498 13.3274 13.7109 13.4839 13.7109 13.6777C13.7109 13.8715 13.5498 14.028 13.3505 14.028H12.3383C12.139 14.028 11.978 13.8715 11.978 13.6777ZM13.8412 14.5871C14.1786 14.4156 14.4086 14.0727 14.4086 13.6777C14.4086 13.5883 14.3933 13.4988 14.3703 13.4168C14.792 13.3199 15.1984 13.1783 15.5894 13.0069L14.2859 15.4666L13.8489 14.5796L13.8412 14.5871ZM11.9013 14.6169L11.5869 15.7871L10.2067 13.1559C10.5594 13.2826 10.9198 13.3945 11.2879 13.469C11.2725 13.5361 11.2649 13.6032 11.2649 13.6777C11.2649 14.0951 11.5256 14.4603 11.8936 14.6243L11.9013 14.6169ZM23.8092 23.9714H1.87193V16.8306C3.20611 12.5149 7.99075 13.1485 9.1179 13.3646L12.3613 19.5736C12.4534 19.7451 12.6374 19.8569 12.8367 19.8569C13.0361 19.8569 13.2201 19.7451 13.3121 19.5736L16.5402 13.4764C19.1703 13.2677 21.1485 13.7001 22.429 14.7585C23.6559 15.7722 23.8015 17.0095 23.8092 17.1437V23.9714Z" fill="#A6A6A6"/>
</g>
<defs>
<clipPath id="clip0_43_246">
<rect width="24.0612" height="25" fill="white" transform="translate(0.806122)"/>
</clipPath>
</defs>
</svg>
