<svg width="28" height="25" viewBox="0 0 28 25" fill="none" xmlns="http://www.w3.org/2000/svg">
<g clip-path="url(#clip0_43_248)">
<path d="M4.74533 7.27543C4.73745 7.17813 4.64283 7.10328 4.53244 7.11825C4.35897 7.1407 4.21704 7.15567 4.10665 7.17064C3.96473 7.1931 3.87799 7.20807 3.87799 7.20807C3.7676 7.23052 3.70452 7.32783 3.72818 7.42513C3.75183 7.50747 3.83068 7.56735 3.91742 7.56735C3.93319 7.56735 3.94896 7.56735 3.95684 7.56735C3.95684 7.56735 4.1855 7.52244 4.57186 7.47753C4.57186 7.47753 4.57975 7.47753 4.58763 7.47753C4.68225 7.45507 4.75322 7.37274 4.73745 7.28292L4.74533 7.27543Z" fill="#A6A6A6"/>
<path d="M22.2104 15.9132C22.1315 15.9731 22.0606 16.033 21.9817 16.0928C21.895 16.1527 21.8871 16.2725 21.9502 16.3473C21.9896 16.3922 22.0448 16.4147 22.1 16.4147C22.1394 16.4147 22.1788 16.3997 22.2104 16.3847C22.2104 16.3847 22.2104 16.3847 22.2183 16.3847C22.305 16.3249 22.3839 16.2575 22.4627 16.1901C22.715 15.9806 22.9595 15.7485 23.196 15.494C23.267 15.4192 23.2591 15.2994 23.1802 15.2395C23.1014 15.1722 22.9752 15.1797 22.9121 15.2545C22.7623 15.4117 22.6204 15.5614 22.4627 15.6961C22.376 15.771 22.2892 15.8458 22.2025 15.9207L22.2104 15.9132Z" fill="#A6A6A6"/>
<path d="M11.7629 9.57334C11.7629 9.57334 11.8496 9.62573 11.8969 9.62573C11.9442 9.62573 11.9916 9.61076 12.031 9.57334C12.1098 9.50597 12.1098 9.38621 12.031 9.31136C11.9048 9.18412 11.7629 9.07184 11.621 8.95208C11.5342 8.88472 11.4554 8.81735 11.3608 8.74999C11.2346 8.66017 11.1163 8.56286 10.9823 8.47304C10.8955 8.41316 10.7773 8.43562 10.7142 8.51795C10.6511 8.60029 10.6748 8.71256 10.7615 8.77244C10.9665 8.90717 11.1636 9.06436 11.3608 9.22154C11.4475 9.29639 11.5342 9.37124 11.621 9.44609C11.6604 9.48352 11.7077 9.52094 11.755 9.55837L11.7629 9.57334Z" fill="#A6A6A6"/>
<path d="M13.2453 11.5718C13.2768 11.6392 13.3478 11.6766 13.4187 11.6766C13.4503 11.6766 13.4739 11.6766 13.5055 11.6542C13.6001 11.6093 13.6395 11.497 13.5922 11.4072C13.4582 11.1452 13.3005 10.8907 13.1428 10.6512C13.0639 10.5314 12.9851 10.4117 12.9062 10.2994C12.9062 10.2994 12.8904 10.2844 12.8826 10.2844C12.8195 10.217 12.717 10.2021 12.6381 10.2545C12.5514 10.3143 12.5277 10.4266 12.5908 10.509C12.6933 10.6512 12.7879 10.8009 12.8904 10.9506C12.9851 11.0928 13.0639 11.2425 13.1506 11.3922C13.1822 11.4521 13.2216 11.512 13.2531 11.5718H13.2453Z" fill="#A6A6A6"/>
<path d="M16.0444 15.9431C16.0444 15.9431 16.0996 15.9656 16.1311 15.9656C16.1784 15.9656 16.2336 15.9506 16.2652 15.9132C16.3361 15.8383 16.3361 15.7261 16.2652 15.6512C16.1942 15.5839 16.1232 15.509 16.0444 15.4416C15.9577 15.3518 15.8709 15.262 15.7842 15.1647C15.658 15.0225 15.5319 14.8803 15.4136 14.7231C15.3505 14.6407 15.2322 14.6258 15.1455 14.6857C15.0588 14.7455 15.043 14.8578 15.1061 14.9401C15.3269 15.2171 15.5555 15.4791 15.7842 15.7111C15.8552 15.7785 15.9182 15.8458 15.9892 15.9132C16.005 15.9282 16.0207 15.9357 16.0444 15.9431Z" fill="#A6A6A6"/>
<path d="M14.5384 13.9521C14.5384 13.9521 14.5778 13.9446 14.6015 13.9371C14.6093 13.9371 14.6251 13.9371 14.633 13.9296C14.7276 13.8772 14.7592 13.765 14.704 13.6826C14.6645 13.6228 14.633 13.5554 14.5936 13.4955C14.5068 13.3383 14.4201 13.1886 14.3334 13.0239C14.2545 12.8742 14.1836 12.732 14.1126 12.5748C14.0732 12.485 13.9549 12.4401 13.8603 12.485C13.7657 12.5225 13.7184 12.6347 13.7657 12.7245C13.947 13.1063 14.1363 13.4731 14.3413 13.8099C14.3491 13.8248 14.357 13.8473 14.3728 13.8623C14.4043 13.9222 14.4753 13.9521 14.5384 13.9521Z" fill="#A6A6A6"/>
<path d="M7.17387 7.50001C7.17387 7.50001 7.18964 7.50001 7.19753 7.50001C7.29214 7.50001 7.37888 7.43264 7.38676 7.34282C7.40253 7.24551 7.32368 7.14821 7.22118 7.14072C7.04771 7.11827 6.87424 7.1033 6.69289 7.08833C6.60616 7.08833 6.51942 7.07336 6.43269 7.07336C6.24345 7.06587 6.0621 7.0509 5.87286 7.0509C5.77036 7.0509 5.68362 7.13324 5.68362 7.23054C5.68362 7.32785 5.77036 7.41767 5.87286 7.41767C6.0621 7.41767 6.25134 7.42515 6.44058 7.44012C6.52731 7.44012 6.61404 7.4551 6.70078 7.46258C6.85847 7.47755 7.02406 7.49252 7.17387 7.50749V7.50001Z" fill="#A6A6A6"/>
<path d="M23.7558 14.506C23.7558 14.506 23.8268 14.5359 23.8583 14.5359C23.882 14.5359 23.8978 14.5284 23.9214 14.5209C23.9608 14.506 23.9924 14.491 24.016 14.4536C24.1343 14.2814 24.2447 14.1018 24.3551 13.9221C24.4103 13.8323 24.3787 13.72 24.2841 13.6751C24.1895 13.6227 24.0712 13.6602 24.0239 13.7425C23.9924 13.7949 23.9529 13.8473 23.9214 13.8997C23.8426 14.0194 23.7716 14.1392 23.6927 14.2515C23.6376 14.3338 23.6612 14.4461 23.7479 14.506H23.7558Z" fill="#A6A6A6"/>
<path d="M3.46009 2.41779C2.99488 2.41779 2.60852 2.77707 2.60852 3.22617C2.60852 3.28605 2.6164 3.34593 2.63217 3.40581L2.86084 3.29354C2.86084 3.29354 2.85295 3.24863 2.85295 3.22617C2.85295 2.90432 3.12892 2.64983 3.46009 2.64983C3.61779 2.64983 3.75972 2.70222 3.8701 2.79953L4.09877 2.68725C3.94107 2.52258 3.71241 2.41779 3.46009 2.41779ZM18.4178 16.8864C18.2127 16.834 18.0156 16.7591 17.8106 16.6768V4.34144C17.8106 4.20671 17.7318 4.07947 17.6056 4.0121L10.1701 0.344437C10.0519 0.284557 9.90994 0.284557 9.79167 0.344437C9.67339 0.411803 9.60243 0.531563 9.60243 0.658809V7.74713C9.27126 7.60492 8.91644 7.48516 8.55374 7.38785C8.467 7.3654 8.38815 7.38785 8.34084 7.4627V0.366892C8.34084 0.232162 8.26988 0.119886 8.15161 0.0525212C8.04122 -0.0148441 7.89929 -0.0223291 7.78102 0.0375511L4.07511 1.87138L3.77549 2.02108C4.07511 2.08845 4.3432 2.25312 4.51667 2.47767L4.73744 2.3654L7.56812 0.965695V20.4343L6.70078 20.8684L6.44058 20.9956L5.18688 21.6094L4.93457 21.7367L3.72029 22.3355L3.56259 22.4178L2.27735 23.054L2.14331 23.1214L0.90538 23.7277V4.25911L1.94619 3.75013L2.16697 3.63785C2.16697 3.63785 2.15908 3.60043 2.15908 3.57797C2.12754 3.47318 2.11966 3.36839 2.11966 3.2636C2.11966 3.09144 2.1512 2.92677 2.21427 2.78456L1.91465 2.94174L0.345552 3.7127C0.219394 3.78007 0.13266 3.89983 0.13266 4.04204V24.334C0.13266 24.4612 0.203624 24.581 0.321898 24.6483C0.384977 24.6783 0.455941 24.7007 0.51902 24.7007C0.582099 24.7007 0.645179 24.6858 0.700373 24.6558L8.13584 20.9807C8.262 20.9208 8.34084 20.7935 8.34084 20.6588V7.67228C8.34084 7.67228 8.40392 7.73216 8.44335 7.74713C8.85336 7.85192 9.23972 7.99414 9.60243 8.15132V20.9582C9.60243 21.0929 9.68916 21.2202 9.81532 21.2876L17.2508 24.9627C17.306 24.9852 17.3612 25.0001 17.4243 25.0001C17.4952 25.0001 17.5662 24.9852 17.6293 24.9477C17.7397 24.8804 17.8106 24.7606 17.8106 24.6334V17.0735C17.9762 17.1408 18.1497 17.1932 18.3231 17.2382C18.3389 17.2456 18.3547 17.2456 18.3704 17.2456C18.4572 17.2456 18.536 17.1932 18.5518 17.1109C18.5833 17.0136 18.5203 16.9088 18.4178 16.8864ZM17.0379 16.4148C17.0379 16.4148 17.0064 16.4447 16.9985 16.4597C16.9433 16.5346 16.9669 16.6393 17.0379 16.6917V24.0346L16.0444 23.5405L15.7842 23.4133L14.6015 22.8295L14.3413 22.7022L13.1428 22.1034L12.8825 21.9762L11.6367 21.3624L11.3765 21.2352L10.3751 20.7411V1.27258L11.3765 1.75911L11.6367 1.88635L12.8825 2.50761L13.1428 2.63486L14.3413 3.22617L14.6015 3.35342L17.0379 4.56599V16.4148Z" fill="#A6A6A6"/>
<path d="M27.0123 0.0523991C26.9019 -0.0149661 26.7521 -0.0224512 26.6338 0.0374291L19.2062 3.71258C19.0722 3.77994 18.9933 3.8997 18.9933 4.04192V24.3338C18.9933 24.4611 19.0643 24.5808 19.1826 24.6482C19.2457 24.6781 19.3087 24.7006 19.3797 24.7006C19.4428 24.7006 19.5059 24.6856 19.5611 24.6557L23.8031 22.5599L23.8899 22.515L25.1988 21.8713L25.4353 21.759L26.9965 20.9805C27.1227 20.9207 27.2015 20.7934 27.2015 20.6587V0.36677C27.2015 0.23204 27.1306 0.119764 27.0123 0.0523991ZM26.4288 20.4341L25.4353 20.9281L25.1751 21.0554L23.9214 21.6766L23.6612 21.8039L22.4627 22.3952L22.2104 22.5225L21.0198 23.1063L20.7675 23.2335L19.7661 23.7275V17.3578C20.1051 17.3278 20.4363 17.253 20.7675 17.1407C20.8542 17.1183 20.9409 17.0883 21.0198 17.0509C21.0277 17.0509 21.0355 17.0509 21.0355 17.0509C21.138 17.0135 21.1853 16.9087 21.138 16.8114C21.1144 16.759 21.075 16.729 21.0198 16.7141C20.9803 16.6991 20.933 16.6991 20.8857 16.7141C20.8463 16.729 20.8069 16.744 20.7675 16.759C20.4363 16.8787 20.1051 16.9611 19.7661 16.991V4.25899L20.7675 3.76497L20.9646 3.66767L22.2104 3.0539L22.4627 2.92665L23.6612 2.33533L23.9214 2.20809L25.1751 1.58683L25.4353 1.45958L26.4288 0.965573V20.4341Z" fill="#A6A6A6"/>
<path d="M25.6797 9.77543C25.7113 9.65567 25.727 9.53591 25.727 9.41615C25.727 8.58531 25.0095 7.90417 24.1343 7.90417C23.2591 7.90417 22.5415 8.58531 22.5415 9.41615C22.5415 9.53591 22.5573 9.65567 22.5889 9.77543C22.6283 10.0224 22.6914 10.217 22.7623 10.3667C22.92 10.6811 23.5745 11.7066 23.882 12.1781C23.472 12.2305 23.2827 12.3952 23.2827 12.5524C23.2827 12.7395 23.5508 12.9416 24.1343 12.9416C24.7178 12.9416 24.9859 12.7395 24.9859 12.5524C24.9859 12.3952 24.7966 12.2305 24.3866 12.1781C24.6862 11.7066 25.3486 10.6811 25.5063 10.3667C25.5772 10.2245 25.6403 10.0224 25.6797 9.77543ZM24.7414 12.5449C24.7257 12.5898 24.5207 12.7021 24.1343 12.7021C23.7479 12.7021 23.535 12.5898 23.5272 12.5449C23.535 12.5075 23.7085 12.4102 24.0239 12.3952C24.0239 12.3952 24.0239 12.4027 24.0318 12.4102C24.0555 12.4476 24.0949 12.4626 24.1343 12.4626C24.1737 12.4626 24.2131 12.4401 24.2368 12.4102C24.2368 12.4102 24.2368 12.4102 24.2447 12.3952C24.5601 12.4176 24.7257 12.5075 24.7414 12.5449ZM25.4432 9.72304C25.4432 9.72304 25.4432 9.72304 25.4432 9.73052C25.4038 9.95507 25.3486 10.1347 25.2855 10.262C25.1278 10.5763 24.4103 11.6991 24.1343 12.1257C23.8583 11.7066 23.1408 10.5838 22.9831 10.262C22.92 10.1347 22.8648 9.95507 22.8333 9.73052C22.8333 9.73052 22.8333 9.73052 22.8333 9.72304C22.8096 9.62573 22.7939 9.52094 22.7939 9.41615C22.7939 8.71256 23.401 8.13621 24.1422 8.13621C24.8834 8.13621 25.4905 8.71256 25.4905 9.41615C25.4905 9.52094 25.4747 9.61825 25.4511 9.72304H25.4432Z" fill="#A6A6A6"/>
<path d="M24.1343 8.56287C23.6612 8.56287 23.2827 8.92963 23.2827 9.37125C23.2827 9.81287 23.6691 10.1796 24.1343 10.1796C24.5995 10.1796 24.9859 9.81287 24.9859 9.37125C24.9859 8.92963 24.5995 8.56287 24.1343 8.56287ZM24.1343 9.95508C23.7953 9.95508 23.5272 9.69311 23.5272 9.37873C23.5272 9.06436 23.8031 8.80239 24.1343 8.80239C24.4655 8.80239 24.7415 9.06436 24.7415 9.37873C24.7415 9.69311 24.4655 9.95508 24.1343 9.95508Z" fill="#A6A6A6"/>
<path d="M4.73748 2.3653C4.5719 2.14823 4.34323 1.97608 4.07515 1.87129C3.88591 1.79644 3.6809 1.75153 3.46012 1.75153C2.70317 1.75153 2.0645 2.26799 1.91468 2.94165C1.89103 3.04644 1.87526 3.15123 1.87526 3.2635C1.87526 3.38326 1.89103 3.50302 1.91468 3.62278C1.92257 3.66769 1.93045 3.7126 1.94622 3.75003C1.98565 3.93715 2.03296 4.09434 2.08815 4.20662C2.24585 4.52099 2.90818 5.54644 3.20781 6.01799C2.79779 6.07039 2.60856 6.23506 2.60856 6.39224C2.60856 6.57937 2.87664 6.78147 3.46012 6.78147C4.04361 6.78147 4.31958 6.57937 4.31958 6.39224C4.31958 6.23506 4.13034 6.07039 3.72033 6.01799C4.01995 5.54644 4.68228 4.52099 4.83998 4.20662C4.91095 4.0644 4.96614 3.8623 5.01345 3.62278C5.03711 3.50302 5.05288 3.38326 5.05288 3.2635C5.05288 2.92668 4.9346 2.61979 4.73748 2.3653ZM4.07515 6.39224C4.05149 6.43715 3.84649 6.54943 3.46012 6.54943C3.07376 6.54943 2.86876 6.43715 2.85299 6.39224C2.86876 6.35482 3.03434 6.25751 3.34974 6.24254C3.35762 6.24254 3.35762 6.24254 3.35762 6.24254C3.38128 6.27997 3.4207 6.30242 3.46012 6.30242C3.50743 6.30242 3.54686 6.27997 3.57051 6.24254C3.57051 6.24254 3.57051 6.24254 3.5784 6.24254C3.88591 6.25751 4.05938 6.35482 4.07515 6.39224ZM4.76902 3.57039C4.72959 3.80242 4.6744 3.98206 4.61132 4.10931C4.45362 4.42368 3.7361 5.54644 3.46012 5.9656C3.19204 5.54644 2.47451 4.42368 2.31681 4.10931C2.26162 3.99703 2.20643 3.83985 2.167 3.63775C2.167 3.62278 2.15912 3.60033 2.15912 3.57787C2.12758 3.47308 2.11969 3.36829 2.11969 3.2635C2.11969 3.09135 2.15123 2.92668 2.21431 2.78446C2.41932 2.3129 2.9003 1.98356 3.46012 1.98356C3.57051 1.98356 3.67302 1.99853 3.77552 2.02099C4.07515 2.08835 4.34323 2.25302 4.5167 2.47757C4.70594 2.69464 4.80844 2.97159 4.80844 3.2635C4.80844 3.36829 4.79267 3.47308 4.76902 3.57039Z" fill="#A6A6A6"/>
<path d="M4.09875 2.68712C3.94105 2.52245 3.71239 2.41766 3.46007 2.41766C2.99487 2.41766 2.60851 2.77694 2.60851 3.22605C2.60851 3.28593 2.61639 3.34581 2.63216 3.40569C2.71889 3.76497 3.05794 4.03443 3.46007 4.03443C3.93317 4.03443 4.31953 3.67515 4.31953 3.22605C4.31953 3.01647 4.24068 2.82934 4.09875 2.68712ZM3.46007 3.80239C3.15256 3.80239 2.89236 3.57784 2.86082 3.29341C2.85294 3.27096 2.85294 3.2485 2.85294 3.22605C2.85294 2.90419 3.12891 2.6497 3.46007 2.6497C3.61777 2.6497 3.7597 2.70209 3.87009 2.7994C3.99625 2.90419 4.0751 3.05389 4.0751 3.22605C4.0751 3.54042 3.79913 3.80239 3.46007 3.80239Z" fill="#A6A6A6"/>
</g>
<defs>
<clipPath id="clip0_43_248">
<rect width="27.0689" height="25" fill="white" transform="translate(0.13266)"/>
</clipPath>
</defs>
</svg>
