<svg width="29" height="25" viewBox="0 0 29 25" fill="none" xmlns="http://www.w3.org/2000/svg">
<g clip-path="url(#clip0_43_265)">
<path d="M24.8507 0H4.36943C2.27721 0 0.579041 1.66851 0.579041 3.72419V16.6206C0.579041 18.6763 2.27721 20.3448 4.36943 20.3448H17.6921L24.5598 24.8709C24.6818 24.9539 24.8225 24.9908 24.9633 24.9908C25.0852 24.9908 25.1978 24.9631 25.3104 24.9078C25.545 24.7788 25.6951 24.5391 25.6951 24.2718V19.9853C27.0274 19.4322 28.6411 18.2246 28.6411 16.6114V3.72419C28.6411 1.66851 26.9429 0 24.8507 0ZM27.1775 16.6206C27.1775 17.4687 25.8921 18.4458 24.7475 18.8053C24.4473 18.8975 24.2409 19.174 24.2409 19.4875V22.9259L18.3301 19.0265C18.2081 18.9436 18.0674 18.9067 17.9267 18.9067H4.36943C3.08408 18.9067 2.04266 17.8835 2.04266 16.6206V3.72419C2.04266 2.46128 3.08408 1.43805 4.36943 1.43805H24.8507C26.1361 1.43805 27.1775 2.46128 27.1775 3.72419V16.6206Z" fill="#A6A6A6"/>
<path d="M23.2276 4.79352H5.95501C5.19506 4.79352 4.57584 5.40193 4.57584 6.14861C4.57584 6.89529 5.19506 7.5037 5.95501 7.5037H23.2276C23.9875 7.5037 24.6068 6.89529 24.6068 6.14861C24.6068 5.40193 23.9875 4.79352 23.2276 4.79352ZM23.2276 6.63718H5.95501C5.68293 6.63718 5.45776 6.41594 5.45776 6.14861C5.45776 5.88128 5.68293 5.66004 5.95501 5.66004H23.2276C23.4997 5.66004 23.7248 5.88128 23.7248 6.14861C23.7248 6.41594 23.4997 6.63718 23.2276 6.63718Z" fill="#A6A6A6"/>
<path d="M23.2276 8.7666H5.95501C5.19506 8.7666 4.57584 9.37501 4.57584 10.1217C4.57584 10.8684 5.19506 11.4768 5.95501 11.4768H23.2276C23.9875 11.4768 24.6068 10.8684 24.6068 10.1217C24.6068 9.37501 23.9875 8.7666 23.2276 8.7666ZM23.2276 10.601H5.95501C5.68293 10.601 5.45776 10.3798 5.45776 10.1125C5.45776 9.84514 5.68293 9.6239 5.95501 9.6239H23.2276C23.4997 9.6239 23.7248 9.84514 23.7248 10.1125C23.7248 10.3798 23.4997 10.601 23.2276 10.601Z" fill="#A6A6A6"/>
<path d="M23.2276 12.5922H5.95501C5.19506 12.5922 4.57584 13.2006 4.57584 13.9473C4.57584 14.6939 5.19506 15.3023 5.95501 15.3023H23.2276C23.9875 15.3023 24.6068 14.6939 24.6068 13.9473C24.6068 13.2006 23.9875 12.5922 23.2276 12.5922ZM23.2276 14.4358H5.95501C5.68293 14.4358 5.45776 14.2146 5.45776 13.9473C5.45776 13.6799 5.68293 13.4587 5.95501 13.4587H23.2276C23.4997 13.4587 23.7248 13.6799 23.7248 13.9473C23.7248 14.2146 23.4997 14.4358 23.2276 14.4358Z" fill="#A6A6A6"/>
</g>
<defs>
<clipPath id="clip0_43_265">
<rect width="28.0714" height="25" fill="white" transform="translate(0.579041)"/>
</clipPath>
</defs>
</svg>
