<svg width="30" height="25" viewBox="0 0 30 25" fill="none" xmlns="http://www.w3.org/2000/svg">
<g clip-path="url(#clip0_43_263)">
<path d="M12.7566 23.3345L14.2992 24.7195C14.2992 24.7195 14.3264 24.7458 14.3446 24.7546L14.4716 24.851C14.5987 24.9474 14.7529 25 14.9072 25C15.0796 25 15.252 24.9386 15.3881 24.8159L17.0215 23.3345C28.1284 13.3152 29.2627 7.41585 29.3353 6.96003C29.3988 6.62693 29.426 6.33766 29.426 6.04839C29.426 2.71739 25.9869 0 21.7492 0C18.673 0 16.1231 2.98913 14.889 5.5575C13.6549 2.98913 11.1051 0 8.02889 0C3.7912 0 0.352051 2.70863 0.352051 6.04839C0.352051 6.33766 0.379274 6.62693 0.442794 6.93373C0.479091 7.17917 0.787616 8.76578 2.42099 11.5007C4.59881 15.1297 8.07426 19.1182 12.7566 23.3345ZM8.02889 1.3587C11.0688 1.3587 13.7003 5.56627 14.1994 7.72265C14.272 8.02945 14.5533 8.25736 14.889 8.25736C15.2248 8.25736 15.5061 8.03822 15.5787 7.72265C16.0778 5.5575 18.7093 1.3587 21.7492 1.3587C25.2065 1.3587 28.0195 3.46248 28.0195 6.04839C28.0195 6.25877 27.9923 6.46914 27.9469 6.72335C27.9469 6.73212 27.9469 6.74965 27.9469 6.75842C27.9469 6.81101 27.0032 12.4825 16.0687 22.344L14.8981 23.4046L13.7275 22.344C2.78396 12.4737 1.86745 6.95126 1.83116 6.72335C1.83116 6.71459 1.83116 6.70582 1.83116 6.68829C1.78579 6.46038 1.76764 6.25 1.76764 6.03962C1.75856 3.46248 4.57159 1.3587 8.02889 1.3587Z" fill="#A6A6A6"/>
</g>
<defs>
<clipPath id="clip0_43_263">
<rect width="29.074" height="25" fill="white" transform="translate(0.352051)"/>
</clipPath>
</defs>
</svg>
