<svg xmlns="http://www.w3.org/2000/svg" version="1.1" xmlns:xlink="http://www.w3.org/1999/xlink" xmlns:svgjs="http://svgjs.dev/svgjs" width="132.65" height="124.21"><svg xmlns="http://www.w3.org/2000/svg" xmlns:xlink="http://www.w3.org/1999/xlink" viewBox="0 0 132.65 124.21"><defs><style>.cls-1{isolation:isolate;}.cls-2{fill:#85bc25;}.cls-3,.cls-4,.cls-5,.cls-6,.cls-7,.cls-8{mix-blend-mode:multiply;}.cls-3{fill:url(#linear-gradient);}.cls-4{fill:url(#linear-gradient-2);}.cls-5{fill:url(#linear-gradient-3);}.cls-6{fill:url(#linear-gradient-4);}.cls-7{fill:url(#linear-gradient-5);}.cls-8{fill:url(#linear-gradient-6);}</style><linearGradient id="SvgjsLinearGradient1016" x1="56.56" y1="33.24" x2="51.85" y2="53.13" gradientUnits="userSpaceOnUse"><stop offset="0" stop-color="#fff"></stop><stop offset="0.5" stop-color="#569a32"></stop><stop offset="1" stop-color="#fff"></stop></linearGradient><linearGradient id="SvgjsLinearGradient1015" x1="45.18" y1="91" x2="64.25" y2="84.17" xlink:href="#linear-gradient"></linearGradient><linearGradient id="SvgjsLinearGradient1014" x1="85.13" y1="60.56" x2="99.96" y2="74.69" xlink:href="#linear-gradient"></linearGradient><linearGradient id="SvgjsLinearGradient1013" x1="82.07" y1="78.77" x2="75.36" y2="98.43" xlink:href="#linear-gradient"></linearGradient><linearGradient id="SvgjsLinearGradient1012" x1="32.49" y1="59.11" x2="47.19" y2="74.62" xlink:href="#linear-gradient"></linearGradient><linearGradient id="SvgjsLinearGradient1011" x1="69.19" y1="46.4" x2="89.2" y2="40.63" xlink:href="#linear-gradient"></linearGradient></defs><g class="cls-1"><g id="SvgjsG1010" data-name="Слой 2"><g id="SvgjsG1009" data-name="Слой 1"><path class="cls-2" d="M66.32,27.48A45.5,45.5,0,0,0,56,57.73l.08,2.7-5.15-1.2-3.76-3.94a54.54,54.54,0,0,1,3.73-18.7c4.47-11.46,11-17.47,15.42-21.92l1.77,7.15Z" transform="translate(0 0)"></path><path class="cls-3" d="M53.24,31.39a56.19,56.19,0,0,0-2.34,5.2,54.85,54.85,0,0,0-3.62,16.19A42.75,42.75,0,0,1,56,55.5a45.54,45.54,0,0,1,5.75-21.32A25.19,25.19,0,0,0,53.24,31.39Z" transform="translate(0 0)"></path><path class="cls-2" d="M32.66,85.78A45.75,45.75,0,0,0,64,79.59l2.31-1.41L68.09,84l-1.77,4.49A54.7,54.7,0,0,1,40,95.21c-8.09,0-13.43-1.67-18.47-3l5.21-4.78Z" transform="translate(0 0)"></path><path class="cls-4" d="M42.12,86.33a24.34,24.34,0,0,1,3.8,8.56,54.87,54.87,0,0,0,20.4-6.43l.12-.29A25.22,25.22,0,0,0,63.35,80,45.81,45.81,0,0,1,42.12,86.33Z" transform="translate(0 0)"></path><path class="cls-2" d="M100,85.78A45.49,45.49,0,0,0,79,61.72l-2.38-1.29,4.32-4.26,4.58-.88A54.53,54.53,0,0,1,99.8,67.87c7.7,9.61,9.65,18.24,11.27,24.32l-5.32-1.31Z" transform="translate(0 0)"></path><path class="cls-5" d="M81.72,63.36A45.27,45.27,0,0,1,96.78,79a25.2,25.2,0,0,0,6.47-6.34,55.83,55.83,0,0,0-3.45-4.8A54.35,54.35,0,0,0,87.49,56.58,44.75,44.75,0,0,1,81.72,63.36Z" transform="translate(0 0)"></path><path class="cls-2" d="M42.11,124.21c-8.32,0-16.63-5.13-22.69-10.93C-14.23,79.63-2.39,22.66,41.37,4.92c43.47-17.63,91.28,14.31,91.28,61.46,0,33.45-24.53,57.83-42.11,57.83C76.37,124.21,68,109.65,71.12,95c5.53-26.2,21.53-25.8,29.77-48.41-16.43-3.32-25.42,1.51-34.57,7.12-9.14-5.6-18.07-10.45-34.57-7.12C40,69.13,56,68.79,61.52,95,64.62,109.67,56.25,124.21,42.11,124.21ZM25.6,107c20.06,18.36,30,2.75,27.28-10.19-5.14-24.42-22.41-22.26-31.05-52.2l-1.24-4.32C33.3,36.85,47.77,33,66.32,43.37a48.52,48.52,0,0,1,24.5-6.73c8.5,0,15.44,2.07,21.24,3.62l-1.25,4.32c-8.63,29.93-25.9,27.78-31,52.2C77,109.69,86.93,125.37,107.05,107a57.49,57.49,0,1,0-81.45,0Z" transform="translate(0 0)"></path><path class="cls-6" d="M79.33,100.53a20.72,20.72,0,0,1,.43-3.75A38.65,38.65,0,0,1,87.65,79.7a44.47,44.47,0,0,1-9.11-2.64A47,47,0,0,0,71.12,95c-.18.87-.32,1.75-.43,2.62A25.11,25.11,0,0,0,79.33,100.53Z" transform="translate(0 0)"></path><path class="cls-7" d="M29.45,61.7c4.79,7.3,10.17,11.59,14.71,17a45,45,0,0,1,6.18-6.35c-4.68-5.31-9.86-9.62-14.17-16.6A25.18,25.18,0,0,0,29.45,61.7Z" transform="translate(0 0)"></path><path class="cls-8" d="M90.79,45.46a34.8,34.8,0,0,0-2.16-8.77A48.49,48.49,0,0,0,67.17,42.9a25,25,0,0,1,2.33,8.86C75.56,48.26,81.94,45.46,90.79,45.46Z" transform="translate(0 0)"></path><path class="cls-2" d="M21.57,92.19c1.5-5.59,3.41-14.5,11.27-24.32A54.69,54.69,0,0,1,47.17,55.29l8.91,5.14L53.7,61.72a45.46,45.46,0,0,0-21,24.06Z" transform="translate(0 0)"></path><path class="cls-2" d="M111.07,92.19l-4.26,1.14a54.6,54.6,0,0,1-40.49-4.87V78.18l2.31,1.41A45.75,45.75,0,0,0,100,85.78Z" transform="translate(0 0)"></path><path class="cls-2" d="M76.57,60.43l.07-2.7A45.5,45.5,0,0,0,66.32,27.48V14.67l3.12,3.13a54.52,54.52,0,0,1,16,37.49Z" transform="translate(0 0)"></path></g></g></g></svg><style>@media (prefers-color-scheme: light) { :root { filter: none; } }
@media (prefers-color-scheme: dark) { :root { filter: none; } }
</style></svg>