<svg width="172" height="48" viewBox="0 0 172 48" fill="none" xmlns="http://www.w3.org/2000/svg">
<g clip-path="url(#clip0_2043_333)">
<path d="M95.9987 13.6372C94.3137 15.691 93.4292 18.2867 93.5091 20.9433L93.5284 21.5955L92.2861 21.3056L91.379 20.354C91.4117 18.8073 91.7163 17.2784 92.2788 15.8375C93.3572 13.0696 94.9324 11.618 95.9987 10.5432L96.4257 12.2701L95.9987 13.6372Z" fill="#85BC25"/>
<path style="mix-blend-mode:multiply" d="M92.8434 14.5815C92.6341 14.9903 92.4457 15.4095 92.2789 15.8375C91.7915 17.089 91.497 18.4075 91.4056 19.7478C92.1283 19.8909 92.8335 20.1111 93.5092 20.4047C93.5427 18.6003 94.019 16.8319 94.8963 15.2554C94.2577 14.9098 93.5624 14.6816 92.8434 14.5815Z" fill="url(#paint0_linear_2043_333)"/>
<path d="M87.8787 27.7181C90.4964 28.1455 93.1802 27.6148 95.439 26.2231L95.9963 25.8825L96.4257 27.2882L95.9987 28.3727C94.0522 29.4396 91.8684 29.9978 89.6494 29.9957C87.6978 29.9957 86.4096 29.5924 85.1937 29.2712L86.4506 28.1167L87.8787 27.7181Z" fill="#85BC25"/>
<path style="mix-blend-mode:multiply" d="M90.1609 27.851C90.5972 28.4742 90.9086 29.1764 91.0776 29.9184C92.8039 29.729 94.476 29.2013 95.9988 28.3654L96.0278 28.2954C95.8958 27.5992 95.6436 26.9315 95.2823 26.3221C93.7258 27.2436 91.9673 27.7685 90.1609 27.851Z" fill="url(#paint1_linear_2043_333)"/>
<path d="M104.124 27.7181C103.192 25.2318 101.392 23.1674 99.0577 21.907L98.4835 21.5954L99.5257 20.5665L100.631 20.354C101.948 21.1568 103.114 22.1853 104.075 23.3924C105.933 25.7135 106.403 27.7978 106.794 29.2663L105.511 28.9499L104.124 27.7181Z" fill="#85BC25"/>
<path style="mix-blend-mode:multiply" d="M99.7137 22.3031C101.213 23.2486 102.46 24.545 103.347 26.0806C103.955 25.6688 104.484 25.15 104.908 24.5493C104.651 24.1484 104.373 23.7615 104.075 23.39C103.231 22.3341 102.23 21.4152 101.106 20.6656C100.697 21.2564 100.231 21.805 99.7137 22.3031Z" fill="url(#paint2_linear_2043_333)"/>
<path d="M90.1584 37C88.1513 37 86.1467 35.761 84.6848 34.3601C76.5672 26.2328 79.4234 12.473 89.9799 8.18835C100.466 3.93024 112 11.6446 112 23.0326C112 31.1116 106.082 37 101.842 37C98.4232 37 96.404 33.4834 97.1567 29.945C98.4907 23.6171 102.351 23.7137 104.338 18.2528C100.375 17.4509 98.2061 18.6175 95.9988 19.9724C93.7939 18.6199 91.6396 17.4485 87.6592 18.2528C89.6494 23.6968 93.5092 23.6146 94.8408 29.945C95.5887 33.4882 93.5695 37 90.1584 37ZM86.1756 32.8434C91.0148 37.2778 93.4127 33.5076 92.7566 30.3822C91.5166 24.4841 87.3504 25.0058 85.2662 17.7745L84.967 16.7311C88.0331 15.9003 91.5238 14.9704 95.9988 17.475C97.7897 16.4172 99.8297 15.8562 101.909 15.8496C103.96 15.8496 105.634 16.3495 107.033 16.7239L106.731 17.7673C104.65 24.9962 100.483 24.4769 99.253 30.375C98.5752 33.4931 100.971 37.2802 105.824 32.8434C107.759 30.8995 109.075 28.4253 109.606 25.7331C110.137 23.041 109.859 20.2517 108.808 17.7174C107.757 15.1831 105.979 13.0175 103.7 11.494C101.42 9.97045 98.7408 9.15735 96 9.15735C93.2591 9.15735 90.5798 9.97045 88.3002 11.494C86.0206 13.0175 84.2429 15.1831 83.1918 17.7174C82.1406 20.2517 81.8631 23.041 82.3941 25.7331C82.9252 28.4253 84.2411 30.8995 86.1756 32.8434Z" fill="#85BC25"/>
<path style="mix-blend-mode:multiply" d="M99.1373 31.2807C99.1442 30.9762 99.179 30.6731 99.241 30.3749C99.5264 28.8639 100.18 27.4468 101.144 26.2497C100.391 26.1162 99.6544 25.9024 98.9467 25.612C98.0553 26.9159 97.4457 28.3917 97.1567 29.945C97.1133 30.1551 97.0795 30.3677 97.053 30.5778C97.6991 30.9375 98.4055 31.1757 99.1373 31.2807Z" fill="url(#paint3_linear_2043_333)"/>
<path style="mix-blend-mode:multiply" d="M87.1044 21.9022C88.2599 23.6653 89.5577 24.7015 90.653 26.0081C91.0983 25.4491 91.5977 24.9353 92.1438 24.4745C91.0148 23.192 89.7652 22.151 88.7255 20.4651C88.1035 20.8431 87.5544 21.3298 87.1044 21.9022Z" fill="url(#paint4_linear_2043_333)"/>
<path style="mix-blend-mode:multiply" d="M101.902 17.9798C101.821 17.2541 101.646 16.542 101.381 15.8616C99.5621 15.9513 97.7894 16.4649 96.2039 17.3615C96.5213 18.034 96.7118 18.7595 96.7659 19.5014C98.2278 18.6561 99.7669 17.9798 101.902 17.9798Z" fill="url(#paint5_linear_2043_333)"/>
<path d="M85.2035 29.2663C85.5653 27.9162 86.0261 25.7642 87.9222 23.3924C88.8879 22.1847 90.058 21.1563 91.3791 20.354L93.5286 21.5954L92.9544 21.907C90.6194 23.1669 88.8196 25.2315 87.8885 27.7181L85.2035 29.2663Z" fill="#85BC25"/>
<path d="M106.794 29.2663L105.766 29.5417C102.481 30.4274 98.9807 30.0059 95.9988 28.3654V25.8825L96.556 26.2231C98.8169 27.6165 101.504 28.1473 104.124 27.7181L106.794 29.2663Z" fill="#85BC25"/>
<path d="M98.4715 21.5955L98.4883 20.9433C98.5683 18.2867 97.6838 15.691 95.9988 13.6372V10.5432L96.7514 11.2992C99.159 13.7043 100.542 16.9496 100.611 20.354L98.4715 21.5955Z" fill="#85BC25"/>
</g>
<path d="M0.2 9H7.8L14.4 22.6L21 9H28.6L18 29.6V37H10.8V29.6L0.2 9ZM36.9969 37H29.7969V9H36.9969V20H40.5969L46.8369 9H54.4369L46.5969 22.8L54.3969 37H46.7969L40.5969 25.6H36.9969V37ZM70.0281 37H62.8281V14.6H54.4281V9H78.4281V14.6H70.0281V37ZM133.609 9H140.809V29.4C140.809 32.2 140.169 34.24 138.889 35.52C137.636 36.7733 135.609 37.4 132.809 37.4H123.609C120.809 37.4 118.769 36.7733 117.489 35.52C116.236 34.24 115.609 32.2 115.609 29.4V9H122.809V29.4C122.809 31 123.609 31.8 125.209 31.8H131.209C132.809 31.8 133.609 31 133.609 29.4V9ZM145.209 9H162.009C164.809 9 166.836 9.64 168.089 10.92C169.369 12.1733 170.009 14.2 170.009 17V20.6C170.009 22.8133 169.636 24.5333 168.889 25.76C168.169 26.9867 167.009 27.8 165.409 28.2L170.409 37H162.609L158.009 28.6H152.409V37H145.209V9ZM162.809 17C162.809 15.4 162.009 14.6 160.409 14.6H152.409V23H160.409C162.009 23 162.809 22.2 162.809 20.6V17Z" fill="black"/>
<defs>
<linearGradient id="paint0_linear_2043_333" x1="93.6443" y1="15.0283" x2="92.5055" y2="19.8317" gradientUnits="userSpaceOnUse">
<stop stop-color="white"/>
<stop offset="0.5" stop-color="#569A32"/>
<stop offset="1" stop-color="white"/>
</linearGradient>
<linearGradient id="paint1_linear_2043_333" x1="90.8991" y1="28.9789" x2="95.5007" y2="27.3328" gradientUnits="userSpaceOnUse">
<stop stop-color="white"/>
<stop offset="0.5" stop-color="#569A32"/>
<stop offset="1" stop-color="white"/>
</linearGradient>
<linearGradient id="paint2_linear_2043_333" x1="100.536" y1="21.6269" x2="104.118" y2="25.0353" gradientUnits="userSpaceOnUse">
<stop stop-color="white"/>
<stop offset="0.5" stop-color="#569A32"/>
<stop offset="1" stop-color="white"/>
</linearGradient>
<linearGradient id="paint3_linear_2043_333" x1="99.7982" y1="26.025" x2="98.1761" y2="30.7723" gradientUnits="userSpaceOnUse">
<stop stop-color="white"/>
<stop offset="0.5" stop-color="#569A32"/>
<stop offset="1" stop-color="white"/>
</linearGradient>
<linearGradient id="paint4_linear_2043_333" x1="87.8377" y1="21.2766" x2="91.3884" y2="25.0185" gradientUnits="userSpaceOnUse">
<stop stop-color="white"/>
<stop offset="0.5" stop-color="#569A32"/>
<stop offset="1" stop-color="white"/>
</linearGradient>
<linearGradient id="paint5_linear_2043_333" x1="96.6912" y1="18.2068" x2="101.519" y2="16.8163" gradientUnits="userSpaceOnUse">
<stop stop-color="white"/>
<stop offset="0.5" stop-color="#569A32"/>
<stop offset="1" stop-color="white"/>
</linearGradient>
<clipPath id="clip0_2043_333">
<rect width="32" height="30" fill="white" transform="translate(80 7)"/>
</clipPath>
</defs>
</svg>
